<svg width="50" height="50" viewBox="0 0 50 50" fill="none" xmlns="http://www.w3.org/2000/svg">
<path d="M42.2969 11.6486C41.6211 10.629 40.6641 9.84777 39.5312 9.39465C37.0664 8.40637 34.9453 7.74621 33.0508 7.37512C31.7227 7.1134 30.4023 7.76965 29.7695 9.00012L29.6133 9.30871C28.2109 9.15246 26.7188 9.10168 25.0195 9.14465C23.2773 9.10168 21.7812 9.15246 20.3789 9.30871L20.2188 9.00012C19.5859 7.76965 18.2695 7.1134 16.9414 7.37512C15.0469 7.74621 12.9258 8.40637 10.4609 9.39465C9.32813 9.84777 8.37109 10.629 7.69531 11.6525C2.97266 18.7814 1.12109 26.4728 2.03906 35.1681C2.07031 35.4728 2.24219 35.7462 2.5 35.9103C6.13281 38.1993 9.27344 39.7657 12.3906 40.8439C13.6953 41.3009 15.1406 40.7892 15.9062 39.6173L17.2773 37.5157C16.1875 37.1017 15.1211 36.6134 14.0977 36.0314C13.6211 35.7579 13.4531 35.1486 13.7266 34.6681C14 34.1876 14.6094 34.0196 15.0898 34.297C18.1328 36.0314 21.5703 36.9454 25.0312 36.9454C28.4961 36.9454 31.9336 36.0314 34.9727 34.297C35.4531 34.0196 36.0625 34.1876 36.3398 34.6681C36.6094 35.1486 36.4453 35.7579 35.9648 36.0314C34.9102 36.6368 33.8047 37.1368 32.6758 37.5548L34.0859 39.6564C34.6641 40.5236 35.625 41.0157 36.6133 41.0157C36.9336 41.0157 37.2617 40.9611 37.5742 40.8556C40.6992 39.7736 43.8516 38.2032 47.4883 35.9103C47.75 35.7462 47.918 35.4728 47.9492 35.1681C48.8672 26.4728 47.0195 18.7814 42.2969 11.6486ZM18.6094 28.9845C16.6836 28.9845 15.0977 26.9532 15.0977 24.4884C15.0977 22.0236 16.6836 19.9923 18.6094 19.9923C20.5352 19.9923 22.1172 22.0236 22.1172 24.4884C22.1172 26.9532 20.5352 28.9845 18.6094 28.9845ZM31.6016 28.9571C29.6914 28.9571 28.1211 26.9142 28.1211 24.4337C28.1211 21.9532 29.6914 19.9142 31.6016 19.9142C33.5078 19.9142 35.0781 21.9532 35.0781 24.4337C35.0781 26.9142 33.5078 28.9571 31.6016 28.9571Z" fill="white"/>
</svg>
