<svg width="50" height="50" viewBox="0 0 50 50" fill="none" xmlns="http://www.w3.org/2000/svg">
<path d="M22.7091 4.37438C13.1266 5.41605 5.41585 13.1268 4.37418 22.5018C3.33251 32.2919 8.95996 41.0402 17.5008 44.3768C18.1234 44.5843 18.75 44.1652 18.75 43.3352V39.9986C18.75 39.9986 17.9158 40.2102 16.8742 40.2102C13.9567 40.2102 12.7075 37.7077 12.5 36.251C12.2925 35.4169 11.8734 34.7902 11.2508 34.1677C10.6242 33.9602 10.4167 33.9602 10.4167 33.7486C10.4167 33.3335 11.0433 33.3335 11.2508 33.3335C12.5 33.3335 13.5417 34.7902 13.9567 35.4169C14.9984 37.0852 16.2516 37.5002 16.8742 37.5002C17.7083 37.5002 18.335 37.2927 18.75 37.0852C18.9575 35.6244 19.5841 34.1677 20.8333 33.3335C16.04 32.2919 12.5 29.5819 12.5 25.0002C12.5 22.7093 13.5417 20.4185 14.9984 18.7502C14.7908 18.3352 14.5833 17.2935 14.5833 15.8327C14.5833 14.9986 14.5833 13.7494 15.21 12.5002C15.21 12.5002 18.1234 12.5002 21.0408 15.2102C22.0825 14.7911 23.5433 14.5835 25 14.5835C26.4567 14.5835 27.9175 14.7911 29.1667 15.2102C31.8766 12.5002 35.0016 12.5002 35.0016 12.5002C35.4167 13.7494 35.4167 14.9986 35.4167 15.8327C35.4167 17.501 35.2091 18.3352 35.0016 18.7502C36.4583 20.4185 37.5 22.5018 37.5 25.0002C37.5 29.5819 33.96 32.2919 29.1667 33.3335C30.4159 34.3752 31.25 36.251 31.25 38.1268V43.5427C31.25 44.1652 31.8766 44.7919 32.7067 44.5843C40.4175 41.4593 45.8333 33.9602 45.8333 25.2077C45.8333 12.7077 35.2091 2.91768 22.7091 4.37438Z" fill="white"/>
</svg>
