<svg width="50" height="50" viewBox="0 0 50 50" fill="none" xmlns="http://www.w3.org/2000/svg">
<path d="M25.0244 4.16675C13.5539 4.16675 4.2155 13.497 4.21143 24.9675C4.20736 28.6337 5.17172 32.2144 6.99057 35.3679L4.16667 45.8334L15.0676 43.2577C18.1071 44.9179 21.5291 45.7846 25.0122 45.7887H25.0203C36.4909 45.7887 45.8211 36.4584 45.8293 24.9879C45.8333 19.4255 43.6727 14.2009 39.742 10.2662C35.8114 6.33553 30.5908 4.17082 25.0244 4.16675ZM25.0203 8.33342C29.4718 8.33748 33.6507 10.0709 36.7961 13.2122C39.9414 16.3575 41.6667 20.5364 41.6626 24.9838C41.6585 34.1594 34.196 41.622 25.0163 41.622C22.2412 41.6179 19.4865 40.9221 17.0654 39.5997L15.6616 38.8347L14.1113 39.2009L10.0098 40.1694L11.0107 36.4503L11.4624 34.782L10.5998 33.2846C9.14714 30.7699 8.37403 27.8891 8.3781 24.9675C8.38217 15.796 15.8488 8.33342 25.0203 8.33342ZM17.6595 15.3647C17.3096 15.3647 16.7481 15.4949 16.272 16.0157C15.7959 16.5325 14.4491 17.7898 14.4491 20.3492C14.4491 22.9086 16.3127 25.3785 16.5731 25.7284C16.8294 26.0743 20.1701 31.4902 25.4557 33.5735C29.8462 35.3028 30.7414 34.9651 31.6935 34.8756C32.6457 34.7901 34.7738 33.6182 35.2051 32.4057C35.6364 31.1931 35.6405 30.1474 35.5103 29.9317C35.38 29.7161 35.0342 29.5859 34.5134 29.3254C33.9966 29.065 31.4372 27.8077 30.9611 27.6368C30.485 27.4659 30.1351 27.3764 29.7892 27.8972C29.4434 28.4181 28.4505 29.5859 28.1453 29.9317C27.8402 30.2817 27.5391 30.3264 27.0182 30.066C26.4974 29.8015 24.821 29.2522 22.8353 27.4822C21.2891 26.1069 20.2474 24.406 19.9422 23.8852C19.6411 23.3684 19.9137 23.0795 20.1742 22.8232C20.4061 22.5912 20.6909 22.2169 20.9513 21.9117C21.2077 21.6065 21.3013 21.3909 21.4722 21.045C21.6431 20.6991 21.5576 20.394 21.4274 20.1335C21.2972 19.8731 20.2881 17.3056 19.8242 16.2761C19.4336 15.4135 19.0226 15.3931 18.6523 15.3769C18.3512 15.3647 18.0054 15.3647 17.6595 15.3647Z" fill="white"/>
</svg>
